<svg width="89" height="44" viewBox="0 0 89 44" fill="none" xmlns="http://www.w3.org/2000/svg">
<path d="M14.1627 12.5121C14.1627 12.5121 15.444 2.02482 2.98149 0.921801C2.98149 0.921801 2.37864 6.76945 5.00316 9.31597C7.62768 11.8625 14.1723 12.5165 14.1723 12.5165L14.1627 12.5121Z" fill="#57B38A" fill-opacity="0.6"></path>
<path d="M54.9904 3.27908C54.9904 3.27908 45.563 -1.50265 40.2812 9.84127C40.2812 9.84127 45.5713 12.4024 48.8575 10.8063C52.1437 9.21022 54.9904 3.27908 54.9904 3.27908Z" fill="#57B38A" fill-opacity="0.4"></path>
<path d="M87.3025 36.3587C87.3025 36.3587 81.7292 23.7273 67.0071 30.824C67.0071 30.824 70.2354 37.7886 74.8772 38.8937C79.519 39.9988 87.3025 36.3587 87.3025 36.3587Z" fill="#57B38A"></path>
</svg>