<svg width="81" height="72" viewBox="0 0 81 72" fill="none" xmlns="http://www.w3.org/2000/svg">
<rect width="79" height="71" transform="translate(0 0.44339)" fill="white"></rect>
<path d="M13.223 34.5335C21.4781 44.1465 45.9028 31.0861 37.6221 14.0065C29.6481 -2.45993 1.21936 6.52325 2.27575 27.5972C3.03396 42.7377 13.0952 49.7734 27.0412 49.5497C42.1032 49.3094 41.6517 40.0776 50.9888 40.0113C59.8317 39.9533 56.5944 49.2431 67.8824 49.5497C75.8138 49.7651 79 45.1575 79 45.1575" stroke="url(#paint0_linear_1_1865)" stroke-width="3" stroke-miterlimit="10" stroke-linecap="round"></path>
<path d="M20.5864 15.8125C21.5928 14.6926 21.8803 13.3355 21.2286 12.7812C20.5768 12.227 19.2325 12.6855 18.2261 13.8054C17.2197 14.9252 16.9322 16.2824 17.584 16.8367C18.2358 17.3909 19.58 16.9324 20.5864 15.8125Z" fill="url(#paint1_linear_1_1865)"></path>
<path d="M12.5434 8.3569C13.626 7.65091 13.4797 5.5932 12.2168 3.76089C10.9539 1.92857 9.05259 1.01551 7.97007 1.7215C6.88756 2.4275 7.03379 4.4852 8.29669 6.31752C9.55959 8.14984 11.4609 9.0629 12.5434 8.3569Z" stroke="url(#paint2_linear_1_1865)" stroke-width="3" stroke-miterlimit="10"></path>
<path d="M43.2109 30.4977C43.2109 30.4977 52.8206 11.3297 72.449 17.6942C72.449 17.6942 74.3062 36.2489 43.2109 30.4977Z" fill="url(#paint3_linear_1_1865)"></path>
<mask id="mask0_1_1865" style="mask-type:luminance" maskUnits="userSpaceOnUse" x="43" y="16" width="30" height="16">
<path d="M43.2109 30.4977C43.2109 30.4977 52.8206 11.3297 72.449 17.6942C72.449 17.6942 74.3062 36.2489 43.2109 30.4977Z" fill="white"></path>
</mask>
<g mask="url(#mask0_1_1865)">
<path d="M59.7892 24.473L43.5089 31.2684L42.9126 29.7187L59.7892 24.473Z" fill="white"></path>
</g>
<path d="M11.121 67.4954C10.9043 67.5041 10.7137 67.4434 10.549 67.3134C10.393 67.1747 10.3063 66.9971 10.289 66.7804C10.2717 66.5637 10.3323 66.3731 10.471 66.2084C10.6097 66.0437 10.7873 65.9571 11.004 65.9484C11.9487 65.8791 12.6723 65.6191 13.175 65.1684C13.6863 64.7091 13.942 64.0764 13.942 63.2704C13.942 62.7331 13.773 62.2651 13.435 61.8664C13.097 61.4591 12.6333 61.1687 12.044 60.9954C11.706 61.9661 11.2813 62.8327 10.77 63.5954C10.848 63.6561 10.926 63.7167 11.004 63.7774C11.082 63.8381 11.1557 63.8944 11.225 63.9464C11.3983 64.0677 11.5023 64.2367 11.537 64.4534C11.5803 64.6614 11.5413 64.8564 11.42 65.0384C11.2987 65.2117 11.1297 65.3201 10.913 65.3634C10.705 65.3981 10.5143 65.3504 10.341 65.2204C10.159 65.0904 9.977 64.9474 9.795 64.7914C9.55233 65.0427 9.29233 65.2724 9.015 65.4804C8.73767 65.6884 8.44733 65.8791 8.144 66.0524C7.60667 66.3471 7.08667 66.4771 6.584 66.4424C6.09 66.4077 5.687 66.2171 5.375 65.8704C5.063 65.5151 4.907 65.0211 4.907 64.3884C4.907 63.6517 5.06733 62.9801 5.388 62.3734C5.70867 61.7581 6.13333 61.2294 6.662 60.7874C6.31533 60.1721 6.038 59.5871 5.83 59.0324C5.752 58.8331 5.76067 58.6381 5.856 58.4474C5.96 58.2481 6.11167 58.1137 6.311 58.0444C6.51033 57.9751 6.70533 57.9881 6.896 58.0834C7.09533 58.1787 7.22967 58.3261 7.299 58.5254C7.377 58.7594 7.468 58.9977 7.572 59.2404C7.68467 59.4831 7.806 59.7301 7.936 59.9814C8.36067 59.7821 8.807 59.6304 9.275 59.5264C9.75167 59.4224 10.2327 59.3704 10.718 59.3704H10.913C10.9737 59.1451 11.0257 58.9154 11.069 58.6814C11.121 58.4474 11.1687 58.2091 11.212 57.9664C11.2467 57.7497 11.3507 57.5807 11.524 57.4594C11.6973 57.3294 11.8923 57.2861 12.109 57.3294C12.317 57.3641 12.4817 57.4681 12.603 57.6414C12.733 57.8147 12.7807 58.0097 12.746 58.2264C12.7113 58.4604 12.668 58.6901 12.616 58.9154C12.564 59.1407 12.512 59.3661 12.46 59.5914C13.396 59.8514 14.1327 60.3064 14.67 60.9564C15.2073 61.5977 15.476 62.3691 15.476 63.2704C15.476 64.0764 15.3027 64.7871 14.956 65.4024C14.6093 66.0091 14.111 66.4944 13.461 66.8584C12.8197 67.2137 12.0397 67.4261 11.121 67.4954ZM7.403 64.7524C7.88833 64.4924 8.33467 64.1501 8.742 63.7254C8.274 63.1881 7.84067 62.6247 7.442 62.0354C6.766 62.7114 6.428 63.4741 6.428 64.3234C6.428 64.5921 6.51467 64.7741 6.688 64.8694C6.86133 64.9561 7.09967 64.9171 7.403 64.7524ZM9.678 62.5034C9.82533 62.2521 9.96833 61.9877 10.107 61.7104C10.2457 61.4244 10.3713 61.1211 10.484 60.8004C10.146 60.8177 9.82533 60.8611 9.522 60.9304C9.22733 60.9997 8.95 61.0907 8.69 61.2034C8.98467 61.6541 9.314 62.0874 9.678 62.5034ZM32.038 68.2364C31.8647 68.3577 31.6697 68.4011 31.453 68.3664C31.2363 68.3317 31.0673 68.2277 30.946 68.0544C30.6513 67.6297 30.3177 67.1877 29.945 66.7284C29.581 66.2691 29.217 65.8314 28.853 65.4154C28.489 64.9907 28.1553 64.6354 27.852 64.3494C27.3407 63.8381 26.9983 63.3657 26.825 62.9324C26.6517 62.4904 26.656 62.0527 26.838 61.6194C27.02 61.1774 27.384 60.7051 27.93 60.2024C28.112 60.0377 28.3287 59.8297 28.58 59.5784C28.84 59.3271 29.113 59.0584 29.399 58.7724C29.685 58.4777 29.9623 58.1917 30.231 57.9144C30.4997 57.6284 30.7423 57.3684 30.959 57.1344C31.1063 56.9784 31.2883 56.9004 31.505 56.9004C31.7217 56.8917 31.908 56.9611 32.064 57.1084C32.22 57.2471 32.3023 57.4291 32.311 57.6544C32.3197 57.8711 32.2503 58.0574 32.103 58.2134C31.791 58.5427 31.4487 58.8937 31.076 59.2664C30.712 59.6304 30.3567 59.9814 30.01 60.3194C29.672 60.6487 29.3773 60.9261 29.126 61.1514C28.788 61.4634 28.5627 61.7321 28.45 61.9574C28.346 62.1741 28.346 62.3907 28.45 62.6074C28.5627 62.8241 28.7707 63.0927 29.074 63.4134C29.3687 63.7167 29.7023 64.0807 30.075 64.5054C30.4563 64.9301 30.8333 65.3721 31.206 65.8314C31.5873 66.2907 31.9253 66.7284 32.22 67.1444C32.3413 67.3177 32.3847 67.5127 32.35 67.7294C32.3153 67.9461 32.2113 68.1151 32.038 68.2364ZM33.546 62.0614C33.4333 62.1654 33.2947 62.2131 33.13 62.2044C32.974 62.1957 32.8483 62.1307 32.753 62.0094C32.649 61.8794 32.519 61.7277 32.363 61.5544C32.207 61.3811 32.064 61.2251 31.934 61.0864C31.8473 60.9997 31.804 60.8871 31.804 60.7484C31.804 60.6097 31.8603 60.4884 31.973 60.3844C32.0683 60.2891 32.181 60.2414 32.311 60.2414C32.4497 60.2327 32.5753 60.2761 32.688 60.3714C32.8267 60.4667 32.987 60.6011 33.169 60.7744C33.351 60.9477 33.4983 61.1081 33.611 61.2554C33.715 61.3767 33.7583 61.5154 33.741 61.6714C33.7323 61.8187 33.6673 61.9487 33.546 62.0614ZM33.949 60.8784C33.8363 60.7571 33.6933 60.6184 33.52 60.4624C33.3553 60.2977 33.2037 60.1504 33.065 60.0204C32.9783 59.9424 32.9307 59.8341 32.922 59.6954C32.9133 59.5567 32.9567 59.4311 33.052 59.3184C33.1473 59.2144 33.26 59.1581 33.39 59.1494C33.5287 59.1407 33.6543 59.1754 33.767 59.2534C33.9143 59.3401 34.0833 59.4657 34.274 59.6304C34.4647 59.7864 34.625 59.9337 34.755 60.0724C34.859 60.1851 34.911 60.3194 34.911 60.4754C34.911 60.6227 34.8547 60.7571 34.742 60.8784C34.638 60.9911 34.5037 61.0474 34.339 61.0474C34.183 61.0474 34.053 60.9911 33.949 60.8784ZM48.769 68.0544C48.613 67.9071 48.5263 67.7251 48.509 67.5084C48.5003 67.2917 48.574 67.1054 48.73 66.9494C49.3887 66.2821 49.9043 65.4414 50.277 64.4274C50.6583 63.4134 50.849 62.3084 50.849 61.1124C50.849 60.4364 50.7407 59.9467 50.524 59.6434C50.3073 59.3401 49.9867 59.1884 49.562 59.1884C49.2153 59.1884 48.8947 59.3314 48.6 59.6174C48.3053 59.8947 48.0843 60.3107 47.937 60.8654C47.7897 61.4201 47.7507 62.1177 47.82 62.9584C47.8373 63.1577 47.781 63.3397 47.651 63.5044C47.5297 63.6604 47.3693 63.7471 47.17 63.7644C46.962 63.7817 46.78 63.7297 46.624 63.6084C46.4767 63.4871 46.3857 63.3267 46.351 63.1274C46.2903 62.6767 46.2513 62.1827 46.234 61.6454C46.2167 61.0994 46.2123 60.5577 46.221 60.0204C46.2383 59.4744 46.2643 58.9717 46.299 58.5124C46.3337 58.0444 46.3683 57.6587 46.403 57.3554C46.429 57.1474 46.5243 56.9784 46.689 56.8484C46.8537 56.7184 47.04 56.6664 47.248 56.6924C47.4647 56.7184 47.6337 56.8094 47.755 56.9654C47.885 57.1214 47.9327 57.3121 47.898 57.5374C47.8807 57.6934 47.8547 57.8927 47.82 58.1354C47.794 58.3781 47.7723 58.6077 47.755 58.8244C47.9543 58.4864 48.223 58.2047 48.561 57.9794C48.899 57.7454 49.25 57.6284 49.614 57.6284C50.5413 57.6284 51.2347 57.9317 51.694 58.5384C52.1533 59.1364 52.383 59.9944 52.383 61.1124C52.383 62.0051 52.2877 62.8761 52.097 63.7254C51.915 64.5661 51.6377 65.3547 51.265 66.0914C50.901 66.8194 50.4417 67.4651 49.887 68.0284C49.7397 68.1844 49.5533 68.2624 49.328 68.2624C49.1113 68.2711 48.925 68.2017 48.769 68.0544ZM66.202 68.2884C65.994 68.2884 65.8163 68.2147 65.669 68.0674C65.5217 67.9201 65.448 67.7424 65.448 67.5344V64.8694C65.2833 65.1121 65.1143 65.3591 64.941 65.6104C64.7763 65.8531 64.6117 66.0957 64.447 66.3384C64.3257 66.5117 64.1567 66.6157 63.94 66.6504C63.7233 66.6851 63.5283 66.6374 63.355 66.5074C63.1903 66.3861 63.0907 66.2214 63.056 66.0134C63.03 65.7967 63.082 65.6061 63.212 65.4414C63.5413 64.9994 63.8923 64.5184 64.265 63.9984C64.6463 63.4784 65.0407 62.9671 65.448 62.4644V60.9824C65.2833 61.0431 65.0667 61.1297 64.798 61.2424C64.538 61.3464 64.2823 61.4591 64.031 61.5804C63.8403 61.6671 63.6453 61.6714 63.446 61.5934C63.2467 61.5154 63.0993 61.3811 63.004 61.1904C62.9173 60.9911 62.9087 60.7917 62.978 60.5924C63.056 60.3844 63.1947 60.2414 63.394 60.1634C63.5587 60.0941 63.7493 60.0204 63.966 59.9424C64.1913 59.8644 64.4167 59.7907 64.642 59.7214C64.8673 59.6434 65.0623 59.5784 65.227 59.5264C65.2703 59.5177 65.3093 59.5091 65.344 59.5004C65.3787 59.4917 65.4133 59.4831 65.448 59.4744V57.6414C65.448 57.4247 65.5217 57.2471 65.669 57.1084C65.8163 56.9611 65.994 56.8874 66.202 56.8874C66.41 56.8874 66.5877 56.9611 66.735 57.1084C66.8823 57.2471 66.956 57.4247 66.956 57.6414V59.5654C67.086 59.6521 67.1857 59.7474 67.255 59.8514C67.3157 59.9207 67.3633 59.9987 67.398 60.0854C67.4327 60.1634 67.4587 60.2457 67.476 60.3324C67.944 59.9337 68.425 59.6131 68.919 59.3704C69.413 59.1277 69.9157 59.0064 70.427 59.0064C71.1203 59.0064 71.7227 59.1581 72.234 59.4614C72.754 59.7647 73.157 60.2154 73.443 60.8134C73.729 61.4114 73.872 62.1524 73.872 63.0364C73.872 63.7991 73.7593 64.4967 73.534 65.1294C73.8807 65.4587 74.1927 65.8271 74.47 66.2344C74.5913 66.4077 74.639 66.6027 74.613 66.8194C74.587 67.0274 74.4873 67.1964 74.314 67.3264C74.1407 67.4477 73.9457 67.4954 73.729 67.4694C73.5123 67.4434 73.3433 67.3437 73.222 67.1704C73.0487 66.9277 72.8883 66.7154 72.741 66.5334C72.4723 66.8454 72.1517 67.0924 71.779 67.2744C71.415 67.4477 71.012 67.5344 70.57 67.5344C69.9373 67.5344 69.4173 67.3611 69.01 67.0144C68.6113 66.6677 68.412 66.2041 68.412 65.6234C68.412 65.0514 68.6113 64.5921 69.01 64.2454C69.4087 63.8987 69.9287 63.7254 70.57 63.7254C71.1073 63.7254 71.662 63.8727 72.234 64.1674C72.3033 63.8034 72.338 63.4264 72.338 63.0364C72.338 62.3604 72.2427 61.8404 72.052 61.4764C71.8613 61.1037 71.623 60.8481 71.337 60.7094C71.051 60.5621 70.7563 60.4884 70.453 60.4884C69.881 60.4884 69.3003 60.7181 68.711 61.1774C68.1217 61.6281 67.5367 62.1957 66.956 62.8804V67.5344C66.956 67.7424 66.8823 67.9201 66.735 68.0674C66.5877 68.2147 66.41 68.2884 66.202 68.2884ZM70.57 66.1304C71.012 66.1304 71.3847 65.9181 71.688 65.4934C71.5147 65.3721 71.3327 65.2767 71.142 65.2074C70.96 65.1381 70.7693 65.1034 70.57 65.1034C70.336 65.1034 70.1627 65.1511 70.05 65.2464C69.9373 65.3417 69.881 65.4674 69.881 65.6234C69.881 65.9614 70.1107 66.1304 70.57 66.1304Z" fill="url(#paint4_linear_1_1865)"></path>
<defs>
<linearGradient id="paint0_linear_1_1865" x1="0.972307" y1="27.5227" x2="80.2779" y2="27.5227" gradientUnits="userSpaceOnUse">
<stop stop-color="#55AC85"></stop>
<stop offset="1" stop-color="#BDD172"></stop>
</linearGradient>
<linearGradient id="paint1_linear_1_1865" x1="17.2481" y1="14.806" x2="21.5844" y2="14.806" gradientUnits="userSpaceOnUse">
<stop stop-color="#55AC85"></stop>
<stop offset="1" stop-color="#BDD172"></stop>
</linearGradient>
<linearGradient id="paint2_linear_1_1865" x1="5.96206" y1="5.03896" x2="14.5409" y2="5.03895" gradientUnits="userSpaceOnUse">
<stop stop-color="#55AC85"></stop>
<stop offset="1" stop-color="#BDD172"></stop>
</linearGradient>
<linearGradient id="paint3_linear_1_1865" x1="43.2109" y1="24.0007" x2="72.4745" y2="24.0007" gradientUnits="userSpaceOnUse">
<stop stop-color="#55AC85"></stop>
<stop offset="1" stop-color="#BDD172"></stop>
</linearGradient>
<linearGradient id="paint4_linear_1_1865" x1="0" y1="61.9434" x2="79" y2="61.9434" gradientUnits="userSpaceOnUse">
<stop stop-color="#57B38A"></stop>
<stop offset="1" stop-color="#C3D974"></stop>
</linearGradient>
</defs>
</svg>