<svg width="70" height="64" viewBox="0 0 70 64" fill="none" xmlns="http://www.w3.org/2000/svg">
<path d="M11.4112 30.9233C18.4895 39.4793 39.4323 27.855 32.332 12.6534C25.4948 -2.00242 1.1188 5.99299 2.02459 24.7498C2.67471 38.2254 11.3016 44.4875 23.2595 44.2884C36.1743 44.0745 35.7872 35.8578 43.7932 35.7988C51.3755 35.7471 48.5997 44.0154 58.2785 44.2884C65.0793 44.4801 67.8112 40.3792 67.8112 40.3792" stroke="url(#paint0_linear_222_138)" stroke-width="3" stroke-miterlimit="10" stroke-linecap="round"></path>
<path d="M17.725 14.2605C18.588 13.2638 18.8345 12.0559 18.2756 11.5625C17.7167 11.0692 16.5641 11.4773 15.7012 12.4741C14.8382 13.4708 14.5917 14.6787 15.1506 15.172C15.7095 15.6654 16.8621 15.2573 17.725 14.2605Z" fill="url(#paint1_linear_222_138)"></path>
<path d="M10.8284 7.62497C11.7566 6.9966 11.6312 5.16516 10.5483 3.53432C9.46544 1.90348 7.83515 1.09081 6.90696 1.71918C5.97877 2.34754 6.10415 4.17899 7.18702 5.80983C8.26988 7.44067 9.90017 8.25334 10.8284 7.62497Z" stroke="url(#paint2_linear_222_138)" stroke-width="3" stroke-miterlimit="10"></path>
<path d="M37.124 27.3313C37.124 27.3313 45.3638 10.2709 62.194 15.9356C62.194 15.9356 63.7864 32.4501 37.124 27.3313Z" fill="url(#paint3_linear_222_138)"></path>
<mask id="mask0_222_138" style="mask-type:luminance" maskUnits="userSpaceOnUse" x="37" y="14" width="26" height="15">
<path d="M37.124 27.3313C37.124 27.3313 45.3638 10.2709 62.194 15.9356C62.194 15.9356 63.7864 32.4501 37.124 27.3313Z" fill="white"></path>
</mask>
<g mask="url(#mask0_222_138)">
<path d="M51.3391 21.9692L37.3797 28.0174L36.8684 26.6381L51.3391 21.9692Z" fill="white"></path>
</g>
<path d="M3.648 61.3615C3.456 61.3615 3.292 61.2935 3.156 61.1575C3.02 61.0215 2.952 60.8575 2.952 60.6655V58.2055C2.8 58.4295 2.644 58.6575 2.484 58.8895C2.332 59.1135 2.18 59.3375 2.028 59.5615C1.916 59.7215 1.76 59.8175 1.56 59.8495C1.36 59.8815 1.18 59.8375 1.02 59.7175C0.868 59.6055 0.776 59.4535 0.744 59.2615C0.72 59.0615 0.768 58.8855 0.888 58.7335C1.192 58.3255 1.516 57.8815 1.86 57.4015C2.212 56.9215 2.576 56.4495 2.952 55.9855V54.6175C2.8 54.6735 2.6 54.7535 2.352 54.8575C2.112 54.9535 1.876 55.0575 1.644 55.1695C1.468 55.2495 1.288 55.2535 1.104 55.1815C0.92 55.1095 0.784 54.9855 0.696 54.8095C0.616 54.6255 0.608 54.4415 0.672 54.2575C0.744 54.0655 0.872 53.9335 1.056 53.8615C1.208 53.7975 1.384 53.7295 1.584 53.6575C1.792 53.5855 2 53.5175 2.208 53.4535C2.416 53.3815 2.596 53.3215 2.748 53.2735C2.788 53.2655 2.824 53.2575 2.856 53.2495C2.888 53.2415 2.92 53.2335 2.952 53.2255V51.5335C2.952 51.3335 3.02 51.1695 3.156 51.0415C3.292 50.9055 3.456 50.8375 3.648 50.8375C3.84 50.8375 4.004 50.9055 4.14 51.0415C4.276 51.1695 4.344 51.3335 4.344 51.5335V53.3095C4.464 53.3895 4.556 53.4775 4.62 53.5735C4.676 53.6375 4.72 53.7095 4.752 53.7895C4.784 53.8615 4.808 53.9375 4.824 54.0175C5.256 53.6495 5.7 53.3535 6.156 53.1295C6.612 52.9055 7.076 52.7935 7.548 52.7935C8.188 52.7935 8.744 52.9335 9.216 53.2135C9.696 53.4935 10.068 53.9095 10.332 54.4615C10.596 55.0135 10.728 55.6975 10.728 56.5135C10.728 57.2175 10.624 57.8615 10.416 58.4455C10.736 58.7495 11.024 59.0895 11.28 59.4655C11.392 59.6255 11.436 59.8055 11.412 60.0055C11.388 60.1975 11.296 60.3535 11.136 60.4735C10.976 60.5855 10.796 60.6295 10.596 60.6055C10.396 60.5815 10.24 60.4895 10.128 60.3295C9.968 60.1055 9.82 59.9095 9.684 59.7415C9.436 60.0295 9.14 60.2575 8.796 60.4255C8.46 60.5855 8.088 60.6655 7.68 60.6655C7.096 60.6655 6.616 60.5055 6.24 60.1855C5.872 59.8655 5.688 59.4375 5.688 58.9015C5.688 58.3735 5.872 57.9495 6.24 57.6295C6.608 57.3095 7.088 57.1495 7.68 57.1495C8.176 57.1495 8.688 57.2855 9.216 57.5575C9.28 57.2215 9.312 56.8735 9.312 56.5135C9.312 55.8895 9.224 55.4095 9.048 55.0735C8.872 54.7295 8.652 54.4935 8.388 54.3655C8.124 54.2295 7.852 54.1615 7.572 54.1615C7.044 54.1615 6.508 54.3735 5.964 54.7975C5.42 55.2135 4.88 55.7375 4.344 56.3695V60.6655C4.344 60.8575 4.276 61.0215 4.14 61.1575C4.004 61.2935 3.84 61.3615 3.648 61.3615ZM7.68 59.3695C8.088 59.3695 8.432 59.1735 8.712 58.7815C8.552 58.6695 8.384 58.5815 8.208 58.5175C8.04 58.4535 7.864 58.4215 7.68 58.4215C7.464 58.4215 7.304 58.4655 7.2 58.5535C7.096 58.6415 7.044 58.7575 7.044 58.9015C7.044 59.2135 7.256 59.3695 7.68 59.3695ZM20.256 61.3015C19.208 61.3015 18.4 61.1175 17.832 60.7495C17.272 60.3895 16.992 59.7975 16.992 58.9735C16.992 58.7895 17.016 58.6215 17.064 58.4695C17.112 58.3175 17.18 58.1535 17.268 57.9775C16.684 57.9855 16.22 57.8335 15.876 57.5215C15.532 57.2095 15.36 56.7935 15.36 56.2735C15.36 55.9055 15.444 55.5935 15.612 55.3375C15.788 55.0735 16.02 54.8735 16.308 54.7375C16.604 54.6015 16.928 54.5335 17.28 54.5335C17.52 54.5335 17.736 54.5735 17.928 54.6535V53.7295C17.584 53.7535 17.248 53.7735 16.92 53.7895C16.6 53.8055 16.304 53.8175 16.032 53.8255C15.832 53.8335 15.66 53.7695 15.516 53.6335C15.38 53.4895 15.312 53.3175 15.312 53.1175C15.32 52.9175 15.392 52.7495 15.528 52.6135C15.672 52.4775 15.844 52.4095 16.044 52.4095C16.3 52.4095 16.592 52.4055 16.92 52.3975C17.248 52.3815 17.584 52.3655 17.928 52.3495V51.4735C17.928 51.2735 17.996 51.1055 18.132 50.9695C18.276 50.8255 18.448 50.7535 18.648 50.7535C18.848 50.7535 19.016 50.8255 19.152 50.9695C19.296 51.1055 19.368 51.2735 19.368 51.4735V52.2295C19.504 52.2135 19.632 52.1975 19.752 52.1815C19.88 52.1575 19.996 52.1415 20.1 52.1335C20.3 52.0935 20.48 52.1335 20.64 52.2535C20.8 52.3655 20.896 52.5215 20.928 52.7215C20.96 52.9135 20.916 53.0895 20.796 53.2495C20.676 53.4095 20.52 53.5015 20.328 53.5255C20.192 53.5415 20.04 53.5575 19.872 53.5735C19.712 53.5895 19.544 53.6055 19.368 53.6215V56.0455C19.368 56.3815 19.32 56.6775 19.224 56.9335C19.128 57.1815 19.02 57.4135 18.9 57.6295C18.78 57.8375 18.672 58.0455 18.576 58.2535C18.48 58.4535 18.432 58.6735 18.432 58.9135C18.432 59.2815 18.576 59.5375 18.864 59.6815C19.16 59.8255 19.624 59.8975 20.256 59.8975C20.952 59.8975 21.476 59.8055 21.828 59.6215C22.188 59.4375 22.42 59.1575 22.524 58.7815C22.628 58.3975 22.64 57.9135 22.56 57.3295C22.536 57.1295 22.584 56.9535 22.704 56.8015C22.824 56.6415 22.984 56.5495 23.184 56.5255C23.384 56.4935 23.56 56.5375 23.712 56.6575C23.872 56.7775 23.968 56.9375 24 57.1375C24.208 58.5135 23.984 59.5535 23.328 60.2575C22.672 60.9535 21.648 61.3015 20.256 61.3015ZM24.3 55.8055C23.684 55.3175 22.992 54.8855 22.224 54.5095C22.048 54.4215 21.924 54.2855 21.852 54.1015C21.788 53.9095 21.796 53.7255 21.876 53.5495C21.964 53.3655 22.1 53.2415 22.284 53.1775C22.476 53.1135 22.66 53.1255 22.836 53.2135C23.252 53.4055 23.68 53.6375 24.12 53.9095C24.56 54.1815 24.936 54.4455 25.248 54.7015C25.4 54.8295 25.48 54.9935 25.488 55.1935C25.504 55.3935 25.448 55.5695 25.32 55.7215C25.192 55.8735 25.028 55.9575 24.828 55.9735C24.628 55.9815 24.452 55.9255 24.3 55.8055ZM17.328 56.8375C17.536 56.8375 17.696 56.7895 17.808 56.6935C17.928 56.5895 17.988 56.4495 17.988 56.2735C17.988 56.0975 17.932 55.9615 17.82 55.8655C17.708 55.7615 17.544 55.7095 17.328 55.7095C17.104 55.7095 16.94 55.7655 16.836 55.8775C16.732 55.9895 16.68 56.1215 16.68 56.2735C16.68 56.4255 16.732 56.5575 16.836 56.6695C16.94 56.7815 17.104 56.8375 17.328 56.8375ZM35.844 60.5455C35.644 60.5935 35.456 60.5655 35.28 60.4615C35.104 60.3575 34.992 60.2095 34.944 60.0175C34.896 59.8255 34.924 59.6455 35.028 59.4775C35.132 59.3015 35.28 59.1895 35.472 59.1415C36.36 58.9095 37.012 58.5335 37.428 58.0135C37.852 57.4935 38.064 56.8335 38.064 56.0335C38.064 55.5295 37.952 55.0775 37.728 54.6775C37.504 54.2775 37.184 53.9535 36.768 53.7055C36.36 53.4575 35.868 53.3055 35.292 53.2495C35.148 54.5935 34.904 55.7575 34.56 56.7415C34.224 57.7175 33.824 58.4735 33.36 59.0095C32.904 59.5375 32.424 59.8015 31.92 59.8015C31.496 59.8015 31.108 59.6775 30.756 59.4295C30.404 59.1815 30.124 58.8255 29.916 58.3615C29.716 57.8975 29.616 57.3415 29.616 56.6935C29.616 56.0295 29.74 55.4095 29.988 54.8335C30.244 54.2495 30.604 53.7375 31.068 53.2975C31.532 52.8575 32.076 52.5135 32.7 52.2655C33.332 52.0175 34.024 51.8935 34.776 51.8935C35.688 51.8935 36.496 52.0695 37.2 52.4215C37.912 52.7655 38.472 53.2495 38.88 53.8735C39.288 54.4895 39.492 55.2095 39.492 56.0335C39.492 57.1935 39.18 58.1615 38.556 58.9375C37.94 59.7055 37.036 60.2415 35.844 60.5455ZM31.932 58.3255C32.076 58.3255 32.24 58.2055 32.424 57.9655C32.616 57.7175 32.808 57.3695 33 56.9215C33.192 56.4735 33.368 55.9455 33.528 55.3375C33.688 54.7215 33.808 54.0415 33.888 53.2975C33.264 53.4175 32.74 53.6495 32.316 53.9935C31.892 54.3295 31.572 54.7335 31.356 55.2055C31.14 55.6695 31.028 56.1575 31.02 56.6695C31.02 57.2135 31.104 57.6255 31.272 57.9055C31.448 58.1855 31.668 58.3255 31.932 58.3255ZM49.98 61.0855C49.78 61.0775 49.608 61.0015 49.464 60.8575C49.328 60.7215 49.264 60.5535 49.272 60.3535C49.272 60.1455 49.344 59.9735 49.488 59.8375C49.632 59.6935 49.804 59.6255 50.004 59.6335C50.66 59.6415 51.156 59.5375 51.492 59.3215C51.836 59.1055 52.008 58.7775 52.008 58.3375C52.008 57.9135 51.82 57.5895 51.444 57.3655C51.076 57.1415 50.548 57.0295 49.86 57.0295C49.588 57.0295 49.328 57.0415 49.08 57.0655C48.832 57.0895 48.592 57.1215 48.36 57.1615V58.6735C48.36 59.4975 48.172 60.1055 47.796 60.4975C47.42 60.8815 46.876 61.0735 46.164 61.0735C45.588 61.0735 45.108 60.9255 44.724 60.6295C44.34 60.3335 44.148 59.8615 44.148 59.2135C44.148 58.5495 44.396 57.9535 44.892 57.4255C45.396 56.8975 46.08 56.4855 46.944 56.1895V54.4015C46.6 54.4335 46.264 54.4575 45.936 54.4735C45.616 54.4895 45.316 54.5015 45.036 54.5095C44.836 54.5095 44.664 54.4415 44.52 54.3055C44.376 54.1695 44.304 54.0015 44.304 53.8015C44.304 53.6015 44.372 53.4335 44.508 53.2975C44.652 53.1615 44.824 53.0935 45.024 53.0935C45.304 53.0855 45.608 53.0735 45.936 53.0575C46.264 53.0415 46.6 53.0215 46.944 52.9975V51.5215C46.944 51.3135 47.012 51.1415 47.148 51.0055C47.284 50.8615 47.452 50.7895 47.652 50.7895C47.852 50.7895 48.02 50.8615 48.156 51.0055C48.292 51.1415 48.36 51.3135 48.36 51.5215V52.8775C48.544 52.8615 48.716 52.8415 48.876 52.8175C49.036 52.7935 49.192 52.7735 49.344 52.7575C49.544 52.7255 49.724 52.7615 49.884 52.8655C50.044 52.9695 50.14 53.1215 50.172 53.3215C50.204 53.5215 50.16 53.6935 50.04 53.8375C49.92 53.9815 49.76 54.0695 49.56 54.1015C49.392 54.1335 49.204 54.1615 48.996 54.1855C48.796 54.2095 48.584 54.2375 48.36 54.2695V55.8535C48.84 55.7815 49.348 55.7455 49.884 55.7455C50.62 55.7455 51.256 55.8495 51.792 56.0575C52.328 56.2655 52.74 56.5655 53.028 56.9575C53.324 57.3415 53.472 57.8015 53.472 58.3375C53.472 59.2255 53.164 59.9135 52.548 60.4015C51.932 60.8895 51.076 61.1175 49.98 61.0855ZM52.596 55.2535C52.468 55.1575 52.312 55.0535 52.128 54.9415C51.944 54.8215 51.76 54.7095 51.576 54.6055C51.392 54.4935 51.232 54.4055 51.096 54.3415C50.92 54.2535 50.792 54.1175 50.712 53.9335C50.64 53.7495 50.644 53.5695 50.724 53.3935C50.82 53.2015 50.96 53.0775 51.144 53.0215C51.336 52.9655 51.52 52.9815 51.696 53.0695C51.864 53.1495 52.056 53.2535 52.272 53.3815C52.488 53.5095 52.7 53.6415 52.908 53.7775C53.124 53.9055 53.3 54.0215 53.436 54.1255C53.596 54.2375 53.688 54.3895 53.712 54.5815C53.736 54.7735 53.692 54.9495 53.58 55.1095C53.46 55.2615 53.304 55.3535 53.112 55.3855C52.928 55.4095 52.756 55.3655 52.596 55.2535ZM46.164 59.7055C46.404 59.7055 46.592 59.6375 46.728 59.5015C46.872 59.3655 46.944 59.0895 46.944 58.6735V57.5935C46.512 57.7935 46.176 58.0335 45.936 58.3135C45.704 58.5855 45.588 58.8695 45.588 59.1655C45.588 59.5255 45.78 59.7055 46.164 59.7055ZM66.108 60.9295C64.82 61.1055 63.7 61.1215 62.748 60.9775C61.796 60.8415 61.06 60.5375 60.54 60.0655C60.028 59.5935 59.772 58.9535 59.772 58.1455C59.772 57.4415 59.948 56.8415 60.3 56.3455C60.66 55.8415 61.156 55.4055 61.788 55.0375C61.732 54.7255 61.652 54.3695 61.548 53.9695C61.444 53.5695 61.336 53.1735 61.224 52.7815C61.112 52.3815 61.012 52.0455 60.924 51.7735C60.868 51.5895 60.888 51.4095 60.984 51.2335C61.088 51.0575 61.232 50.9415 61.416 50.8855C61.616 50.8295 61.8 50.8535 61.968 50.9575C62.144 51.0535 62.26 51.1975 62.316 51.3895C62.452 51.8535 62.584 52.3575 62.712 52.9015C62.848 53.4375 62.96 53.9535 63.048 54.4495C63.432 54.2975 63.84 54.1615 64.272 54.0415C64.704 53.9135 65.152 53.7975 65.616 53.6935C65.808 53.6455 65.988 53.6735 66.156 53.7775C66.324 53.8815 66.428 54.0295 66.468 54.2215C66.508 54.4215 66.476 54.6055 66.372 54.7735C66.268 54.9335 66.12 55.0335 65.928 55.0735C64.928 55.2815 64.116 55.5055 63.492 55.7455C62.868 55.9775 62.388 56.2255 62.052 56.4895C61.724 56.7455 61.496 57.0135 61.368 57.2935C61.248 57.5655 61.188 57.8495 61.188 58.1455C61.188 58.7775 61.572 59.2255 62.34 59.4895C63.108 59.7455 64.304 59.7535 65.928 59.5135C66.128 59.4815 66.304 59.5295 66.456 59.6575C66.616 59.7775 66.708 59.9335 66.732 60.1255C66.756 60.3255 66.708 60.5015 66.588 60.6535C66.468 60.8135 66.308 60.9055 66.108 60.9295Z" fill="url(#paint4_linear_222_138)"></path>
<defs>
<linearGradient id="paint0_linear_222_138" x1="0.906963" y1="24.6834" x2="68.907" y2="24.6834" gradientUnits="userSpaceOnUse">
<stop stop-color="#55AC85"></stop>
<stop offset="1" stop-color="#BDD172"></stop>
</linearGradient>
<linearGradient id="paint1_linear_222_138" x1="14.8626" y1="13.3647" x2="18.5807" y2="13.3647" gradientUnits="userSpaceOnUse">
<stop stop-color="#55AC85"></stop>
<stop offset="1" stop-color="#BDD172"></stop>
</linearGradient>
<linearGradient id="paint2_linear_222_138" x1="5.1852" y1="4.67185" x2="12.5411" y2="4.67185" gradientUnits="userSpaceOnUse">
<stop stop-color="#55AC85"></stop>
<stop offset="1" stop-color="#BDD172"></stop>
</linearGradient>
<linearGradient id="paint3_linear_222_138" x1="37.124" y1="21.5486" x2="62.2159" y2="21.5486" gradientUnits="userSpaceOnUse">
<stop stop-color="#55AC85"></stop>
<stop offset="1" stop-color="#BDD172"></stop>
</linearGradient>
<linearGradient id="paint4_linear_222_138" x1="0" y1="55.0815" x2="70" y2="55.0815" gradientUnits="userSpaceOnUse">
<stop stop-color="#57B38A"></stop>
<stop offset="1" stop-color="#C3D974"></stop>
</linearGradient>
</defs>
</svg>