<svg width="115" height="14" viewBox="0 0 115 14" fill="none" xmlns="http://www.w3.org/2000/svg">
<g clip-path="url(#clip0_131_3636)">
<path d="M0.0971187 7.4151L0.147362 8.48535C3.34384 8.33529 4.87234 8.9071 6.60061 9.46953C8.53537 10.1653 10.57 10.8563 14.4657 10.6735L14.3652 8.53295C11.2686 8.67832 9.74015 8.10651 8.01187 7.54408C6.07712 6.84833 3.94258 6.16196 0.046875 6.34485L0.0971187 7.4151ZM14.4657 10.6735C18.4613 10.4859 20.4223 9.60724 22.2833 8.73329C23.9513 8.01142 25.4195 7.29893 28.616 7.14887L28.5155 5.00837C24.6198 5.19125 22.559 6.07458 20.6979 6.94853C19.0299 7.6704 17.5617 8.38289 14.3652 8.53295L14.4657 10.6735ZM28.616 7.14887C31.8125 6.9988 33.341 7.57061 35.0693 8.13304C36.9541 8.83114 39.0387 9.51986 42.9344 9.33697L42.8339 7.19647C39.7373 7.34184 38.1106 6.8104 36.4805 6.2076C34.5458 5.51185 32.4112 4.82548 28.5155 5.00837L28.616 7.14887ZM42.9344 9.33697C46.93 9.14939 48.8909 8.27075 50.752 7.39681C52.42 6.67494 53.8882 5.96244 57.0847 5.81238L56.9842 3.67188C52.9886 3.85946 51.0276 4.7381 49.1665 5.61205C47.5002 6.36959 46.0304 7.04641 42.8339 7.19647L42.9344 9.33697ZM57.0847 5.81238C60.2811 5.66232 61.8096 6.23413 63.5379 6.79656C65.4727 7.49231 67.5073 8.18337 71.403 8.00049L71.3025 5.85999C68.106 6.01005 66.5792 5.47391 64.8992 4.87346C63.0144 4.17537 60.8799 3.489 56.9842 3.67188L57.0847 5.81238ZM71.403 8.00049C75.3986 7.81291 77.3596 6.93427 79.2206 6.06032C80.8886 5.33845 82.3568 4.62596 85.5533 4.4759L85.4528 2.3354C81.4572 2.52298 79.4963 3.40162 77.6352 4.27556C75.9689 5.03311 74.499 5.70993 71.3025 5.85999L71.403 8.00049ZM85.5533 4.4759C88.7498 4.32584 90.2783 4.89765 92.0066 5.46008C93.8414 6.16052 95.9759 6.84689 99.8717 6.664L99.7712 4.5235C96.6746 4.66888 95.0479 4.13743 93.3679 3.53698C91.4831 2.83889 89.3485 2.15251 85.4528 2.3354L85.5533 4.4759ZM99.8717 6.664C103.867 6.47643 105.828 5.59779 107.689 4.72384C109.357 4.00197 110.825 3.28948 114.022 3.13942L113.921 0.998919C109.926 1.1865 107.965 2.06513 106.104 2.93908C104.438 3.69663 102.968 4.37344 99.7712 4.5235L99.8717 6.664Z" fill="white"></path>
</g>
<defs>
<clipPath id="clip0_131_3636">
<rect width="114" height="8" fill="white" transform="translate(0 5.34595) rotate(-2.68782)"></rect>
</clipPath>
</defs>
</svg>